<svg width="91" height="38" viewBox="0 0 91 38" fill="none" xmlns="http://www.w3.org/2000/svg">
<path d="M78.6345 30.9382C77.2707 30.9382 76.047 30.6019 74.9634 29.9293C73.8798 29.2381 73.0204 28.3133 72.3852 27.155C71.7687 25.978 71.4604 24.6515 71.4604 23.1756C71.4604 21.6997 71.7967 20.3732 72.4693 19.1962C73.1606 18.0192 74.0853 17.0945 75.2437 16.4219C76.4207 15.7306 77.7378 15.385 79.195 15.385C80.6522 15.385 81.96 15.7306 83.1183 16.4219C84.2766 17.0945 85.1921 18.0192 85.8647 19.1962C86.5559 20.3732 86.9015 21.6997 86.9015 23.1756H85.8086C85.8086 24.6515 85.491 25.978 84.8558 27.155C84.2393 28.3133 83.3892 29.2381 82.3056 29.9293C81.2221 30.6019 79.9984 30.9382 78.6345 30.9382ZM79.195 28.4161C80.1478 28.4161 80.9979 28.1919 81.7452 27.7435C82.4925 27.2764 83.081 26.6506 83.5107 25.8659C83.9404 25.0625 84.1552 24.1658 84.1552 23.1756C84.1552 22.1668 83.9404 21.27 83.5107 20.4853C83.081 19.682 82.4925 19.0561 81.7452 18.6077C80.9979 18.1407 80.1478 17.9071 79.195 17.9071C78.2609 17.9071 77.4108 18.1407 76.6448 18.6077C75.8975 19.0561 75.2997 19.682 74.8513 20.4853C74.4216 21.27 74.2068 22.1668 74.2068 23.1756C74.2068 24.1658 74.4216 25.0625 74.8513 25.8659C75.2997 26.6506 75.8975 27.2764 76.6448 27.7435C77.4108 28.1919 78.2609 28.4161 79.195 28.4161ZM85.4723 30.8541C85.0613 30.8541 84.7157 30.7233 84.4354 30.4618C84.1739 30.1815 84.0431 29.8359 84.0431 29.4249V25.1373L84.5756 22.1668L86.9015 23.1756V29.4249C86.9015 29.8359 86.7614 30.1815 86.4812 30.4618C86.2196 30.7233 85.8833 30.8541 85.4723 30.8541Z" fill="black"/>
<path d="M64.5148 30.9382C63.0202 30.9382 61.6844 30.6019 60.5074 29.9293C59.3491 29.2381 58.4337 28.3133 57.7611 27.155C57.1072 25.978 56.7803 24.6515 56.7803 23.1756C56.7803 21.6623 57.1072 20.3172 57.7611 19.1402C58.415 17.9632 59.3118 17.0478 60.4514 16.3939C61.591 15.7213 62.8988 15.385 64.3747 15.385C65.477 15.385 66.4858 15.5999 67.4013 16.0296C68.3167 16.4406 69.1387 17.0664 69.8674 17.9071C70.1289 18.2061 70.2223 18.5143 70.1476 18.8319C70.0729 19.1495 69.8674 19.4298 69.5311 19.6726C69.2695 19.8595 68.9799 19.9249 68.6623 19.8688C68.3447 19.7941 68.0552 19.6259 67.7936 19.3644C66.8782 18.3929 65.7385 17.9071 64.3747 17.9071C63.4219 17.9071 62.5812 18.1313 61.8526 18.5797C61.124 19.0094 60.5541 19.6166 60.1431 20.4013C59.7321 21.1859 59.5266 22.1107 59.5266 23.1756C59.5266 24.1845 59.7321 25.0812 60.1431 25.8659C60.5728 26.6506 61.1613 27.2764 61.9086 27.7435C62.6559 28.1919 63.5247 28.4161 64.5148 28.4161C65.1687 28.4161 65.7385 28.3413 66.2243 28.1919C66.7287 28.0237 67.1864 27.7715 67.5974 27.4352C67.8964 27.1923 68.2046 27.0616 68.5222 27.0429C68.8398 27.0055 69.1201 27.0896 69.3629 27.2951C69.6805 27.5567 69.858 27.8556 69.8954 28.1919C69.9328 28.5095 69.8207 28.799 69.5591 29.0606C68.214 30.3123 66.5325 30.9382 64.5148 30.9382Z" fill="black"/>
<path d="M41.8157 30.8261C41.5168 30.8261 41.2365 30.742 40.975 30.5738C40.7321 30.387 40.564 30.1628 40.4705 29.9013L36.323 17.4587C36.1736 16.8796 36.1736 16.4125 36.323 16.0575C36.4912 15.6839 36.8461 15.4971 37.3879 15.4971C37.7429 15.4971 38.0325 15.5998 38.2567 15.8053C38.4995 15.9922 38.6957 16.3191 38.8452 16.7862L42.3762 27.8275H41.3953L44.7302 16.562C44.8236 16.2444 44.9824 15.9922 45.2066 15.8053C45.4308 15.5998 45.739 15.4971 46.1313 15.4971C46.505 15.4971 46.8039 15.5998 47.0281 15.8053C47.271 15.9922 47.4298 16.2444 47.5045 16.562L50.2228 27.155H49.8025L53.1093 16.7862C53.3708 15.9268 53.8566 15.4971 54.5665 15.4971C55.0896 15.4971 55.4446 15.6839 55.6314 16.0575C55.8182 16.4125 55.8089 16.8796 55.6034 17.4587L51.4559 29.9013C51.3811 30.1628 51.2223 30.387 50.9795 30.5738C50.7366 30.742 50.4563 30.8261 50.1387 30.8261C49.8398 30.8261 49.5596 30.742 49.298 30.5738C49.0365 30.387 48.8683 30.1628 48.7936 29.9013L45.9072 19.2242H46.1874L43.1608 29.9013C43.0861 30.1628 42.918 30.387 42.6564 30.5738C42.4135 30.742 42.1333 30.8261 41.8157 30.8261Z" fill="black"/>
<path d="M27.1719 15.3845C28.6663 15.3845 29.9931 15.7209 31.1514 16.3933C32.3097 17.0472 33.2162 17.9634 33.8701 19.1404C34.5426 20.2986 34.8789 21.6437 34.8789 23.1755C34.8789 24.5046 34.6255 25.7035 34.1211 26.7732L36.2861 28.7839C36.7827 29.245 36.8126 30.0217 36.3516 30.5183C35.8905 31.0149 35.1138 31.0437 34.6172 30.5828L32.6953 28.7976C32.25 29.2418 31.7452 29.6284 31.1797 29.9568C30.0214 30.6107 28.6852 30.9382 27.1719 30.9382C25.6588 30.9382 24.3232 30.6106 23.165 29.9568C22.0068 29.2842 21.0915 28.369 20.4189 27.2107C19.7651 26.0337 19.4375 24.6888 19.4375 23.1755C19.4375 21.6436 19.7651 20.2987 20.4189 19.1404C21.0915 17.9634 22.0067 17.0472 23.165 16.3933C24.3232 15.7209 25.6589 15.3846 27.1719 15.3845ZM27.1719 17.907C26.2006 17.907 25.3409 18.1315 24.5938 18.5798C23.8467 19.0282 23.2577 19.6536 22.8281 20.4568C22.3984 21.2415 22.1836 22.148 22.1836 23.1755C22.1836 24.2028 22.3986 25.1088 22.8281 25.8933C23.2577 26.6778 23.8467 27.2946 24.5938 27.7429C25.3409 28.1912 26.2006 28.4157 27.1719 28.4158C28.1433 28.4158 29.0027 28.1912 29.75 27.7429C30.4973 27.2945 31.0773 26.678 31.4883 25.8933C31.9178 25.1088 32.1328 24.2028 32.1328 23.1755C32.1328 22.148 31.918 21.2415 31.4883 20.4568C31.0773 19.6535 30.4973 19.0282 29.75 18.5798C29.0028 18.1315 28.1433 17.907 27.1719 17.907ZM27.5566 19.1492C29.1691 19.1492 30.8271 20.3015 30.8271 22.4187C30.8271 22.6766 30.6173 22.8855 30.3594 22.8855C30.1015 22.8855 29.8926 22.6766 29.8926 22.4187C29.8926 20.9061 28.7466 20.0837 27.5566 20.0837C27.2989 20.0835 27.0898 19.8738 27.0898 19.616C27.09 19.3583 27.299 19.1494 27.5566 19.1492Z" fill="#161616"/>
<path d="M5.63282 30.8258C5.22181 30.8258 4.87618 30.6856 4.59595 30.4054C4.33439 30.1252 4.20361 29.7795 4.20361 29.3685V10.3964C4.20361 9.98543 4.34373 9.6398 4.62397 9.35956C4.90421 9.07933 5.24049 8.93921 5.63282 8.93921C6.04384 8.93921 6.38947 9.07933 6.6697 9.35956C6.94994 9.6398 7.09006 9.98543 7.09006 10.3964V27.9113H17.2347C17.6457 27.9113 17.9913 28.0514 18.2715 28.3316C18.5518 28.6119 18.6919 28.9575 18.6919 29.3685C18.6919 29.7795 18.5518 30.1252 18.2715 30.4054C17.9913 30.6856 17.6457 30.8258 17.2347 30.8258H5.63282Z" fill="black"/>
</svg>
